# xmcd
#
# Track frame offsets:
#	150
#	9537
#	20300
#	32270
#	43535
#	58862
#	70775
#	81782
#	98107
#	112850
#	127495
#	136655
#	154110
#	164795
#	185305
#
# Disc length: 2605 seconds
# Revision: 10
# Processed by: cddbd v1.5.2PL0 Copyright (c) Steve Scherf et al.
# Submitted via: dBpowerAMP V12.0
#
DISCID=bd0a2b0f
DTITLE=Elvis Presley - The Country Collection, Disc 1 of 2
DYEAR=2001
DGENRE=Country
TTITLE0=Blue Moon of Kentucky
TTITLE1=When My Blue Moon Turns to Gold Again
TTITLE2=A Fool Such as I
TTITLE3=You Don't Know Me
TTITLE4=Gentle on My Mind
TTITLE5=It Keeps Right on A-Hurtin'
TTITLE6=From a Jack to a King
TTITLE7=Make the World Go Away
TTITLE8=Kentucky Rain
TTITLE9=Good Time Charlie's Got the Blues
TTITLE10=Are You Sincere
TTITLE11=She Thinks I Still Care
TTITLE12=I've Got a Thing About You Baby
TTITLE13=He'll Have to Go
TTITLE14=I'm So Lonesome I Could Cry
EXTD=
EXTT0=
EXTT1=
EXTT2=
EXTT3=
EXTT4=
EXTT5=
EXTT6=
EXTT7=
EXTT8=
EXTT9=
EXTT10=
EXTT11=
EXTT12=
EXTT13=
EXTT14=
PLAYORDER=
